<svg xmlns="http://www.w3.org/2000/svg" fill="currentColor" viewBox="0 0 24 24"><path fill-opacity=".85" d="M24 12a12.01 12.01 0 0 1-24 0 12.01 12.01 0 0 1 24 0M13.52 5.56q-.7.01-.7.7v11.02q0 .66.7.68h1.37q.69-.02.7-.68v-6.62l1.4 6.77c.08.42.37.63.8.53l.88-.22c.42-.08.62-.39.54-.82l-1.9-9.15q-.14-.68-.8-.55l-.92.23v-1.2q-.01-.68-.7-.69ZM5.8 7.1q-.71.01-.72.69v9.48q0 .66.72.68h1.06q.66-.02.68-.68V7.8q-.02-.68-.68-.69ZM9.04 9c-.43 0-.69.27-.69.71v7.56c0 .43.26.68.69.68h2.28q.67-.02.66-.68V9.71c0-.44-.2-.71-.66-.71Zm2.12 7.3c0 .21-.15.38-.37.38H9.57c-.2 0-.35-.17-.35-.39 0-.2.14-.36.35-.36h1.22c.22 0 .37.17.37.36m0-5.62c0 .18-.15.36-.37.36H9.57a.36.36 0 0 1-.35-.36q.02-.35.35-.36h1.22q.35.01.37.36"/></svg>